<svg xmlns="http://www.w3.org/2000/svg" width="1020" height="315.777" viewBox="0 0 1020 315.777">
  <g id="Grupo_53806" data-name="Grupo 53806" transform="translate(-2761.074 -1468.767)">
    <g id="Grupo_53776" data-name="Grupo 53776" transform="translate(3170.679 1555.506)">
      <g id="Grupo_53775" data-name="Grupo 53775" transform="translate(0 0)">
        <path id="Rectángulo_5110" data-name="Rectángulo 5110" d="M0,0H125.6a0,0,0,0,1,0,0V13.337a0,0,0,0,1,0,0H6.192A6.192,6.192,0,0,1,0,7.145V0A0,0,0,0,1,0,0Z" transform="translate(2.135 111.391)" fill="#6ca3ea"/>
        <g id="Grupo_53774" data-name="Grupo 53774" transform="translate(19.861 124.728)">
          <path id="Trazado_99563" data-name="Trazado 99563" d="M3239.171,1772.187h-7.58l-2.127-96.457h11.58Z" transform="translate(-3191.233 -1675.73)" fill="#8eaff1"/>
          <path id="Trazado_99564" data-name="Trazado 99564" d="M3279.379,1751.983h-73.72v-6.659l37.573-3.389,36.147,3.389Z" transform="translate(-3198.498 -1655.526)" fill="#8eaff1"/>
          <path id="Trazado_99565" data-name="Trazado 99565" d="M3200.172,1750.251a6.064,6.064,0,1,1,6.064,6.064A6.063,6.063,0,0,1,3200.172,1750.251Z" transform="translate(-3200.172 -1654.839)" fill="#8eaff1"/>
          <path id="Trazado_99566" data-name="Trazado 99566" d="M3256.655,1750.251a6.064,6.064,0,1,1,6.064,6.064A6.064,6.064,0,0,1,3256.655,1750.251Z" transform="translate(-3182.935 -1654.839)" fill="#8eaff1"/>
          <path id="Rectángulo_5111" data-name="Rectángulo 5111" d="M0,0H62.026a0,0,0,0,1,0,0V2.088a4.241,4.241,0,0,1-4.241,4.241H4.241A4.241,4.241,0,0,1,0,2.088V0A0,0,0,0,1,0,0Z" transform="translate(13.008)" fill="#8eaff1"/>
        </g>
        <path id="Trazado_99567" data-name="Trazado 99567" d="M3197.115,1704.893a10.524,10.524,0,0,1-10.524-10.524V1610.3c0-16.644,10.881-30.136,24.305-30.136h54.963c13.422,0,24.305,13.493,24.305,30.136v94.591Z" transform="translate(-3184.456 -1580.166)" fill="#b2044b"/>
        <path id="Trazado_99568" data-name="Trazado 99568" d="M3196.835,1704.893a5.77,5.77,0,0,1-5.77-5.77V1610.3c0-16.644,10.881-30.136,24.3-30.136h54.963c13.424,0,24.3,13.493,24.3,30.136v94.591Z" transform="translate(-3183.09 -1580.166)" fill="#ff0062"/>
        <path id="Trazado_99569" data-name="Trazado 99569" d="M3326.077,1678.848H3191.623a6.667,6.667,0,0,1-6.668-6.668h0a6.667,6.667,0,0,1,6.668-6.668h134.454a6.667,6.667,0,0,1,6.668,6.668h0A6.667,6.667,0,0,1,3326.077,1678.848Z" transform="translate(-3184.955 -1554.121)" fill="#b2044b"/>
      </g>
    </g>
    <g id="Grupo_53779" data-name="Grupo 53779" transform="translate(3148.174 1475.506)">
      <path id="Trazado_99570" data-name="Trazado 99570" d="M3364.888,1761.643h-50.056c-2.408-2.938-3.758-16.756-3.394-20.3.076-.712.975-4.026.975-4.026s18.482-7.8,20.83,2.672c.071.329.158.65.253.966,2.958,9.792,16.226,14.243,23.887,15.482C3362.367,1757.249,3364.207,1759.838,3364.888,1761.643Z" transform="translate(-3123.869 -1453.059)" fill="#163054"/>
      <path id="Trazado_99571" data-name="Trazado 99571" d="M3255.328,1635.591c1.808,0,68.527,9.328,82.412,24.933,6.936,7.794,25.068,109.937,25.068,109.937s-8.431,5.984-26.963.376c0,0-24.461-66.091-23.457-84.773.278-5.166-59.31-7.327-69.857-9.806s-23.635-8.558-17.958-18.706S3255.328,1635.591,3255.328,1635.591Z" transform="translate(-3150.78 -1483.252)" fill="#1e3865"/>
      <path id="Trazado_99572" data-name="Trazado 99572" d="M3338.925,1761.289h-50.056c-2.408-2.938-1.521-13.779-1.156-17.318.076-.713.126-1.129.126-1.129s17.094-13.672,19.442-3.2c.071.329.158.65.253.966,2.958,9.793,16.226,14.243,23.887,15.482C3336.4,1756.894,3338.243,1759.484,3338.925,1761.289Z" transform="translate(-3131.233 -1452.704)" fill="#153c6b"/>
      <path id="Trazado_99573" data-name="Trazado 99573" d="M3232.415,1641.659c1.806,0,81.49,3.957,95.375,21.144,6.936,8.585,7.967,107.739,7.967,107.739s-8.582,10.64-27.113,4.463c0,0-17.03-52.606-15.779-88.429.2-5.693-49.6-6.346-63.276-7.433-17.348-1.38-21.731-30.5-16.052-41.674S3232.415,1641.659,3232.415,1641.659Z" transform="translate(-3154.443 -1483.922)" fill="#1c4080"/>
      <g id="Grupo_53778" data-name="Grupo 53778" transform="translate(-0.001 0)">
        <rect id="Rectángulo_5112" data-name="Rectángulo 5112" width="17.53" height="21.841" rx="6.325" transform="matrix(0.98, -0.198, 0.198, 0.98, 81.467, 26.034)" fill="#0d2546"/>
        <path id="Trazado_99574" data-name="Trazado 99574" d="M3287.616,1662.482c-9.991,15.954-72.381,20.763-72.381,20.763-1.052-2.549-5.793-43.68-6.6-46.518a138.018,138.018,0,0,1-4.18-22.582c-.01-.1-.022-.2-.033-.295a263.636,263.636,0,0,1-1.25-33.753c.111-4.443.287-7.18.3-7.313v0c.15-.064.306-.125.456-.187,3.774-1.584,7.4-2.948,10.865-4.131l.029-.007c2.917-1,5.726-1.853,8.428-2.593a123.015,123.015,0,0,1,13.254-2.891,96.794,96.794,0,0,1,13.084-1.207c.177-.008.349-.008.525-.012q1.547-.025,3,.008c9.744.209,16.227,2.148,19.507,3.44.456.18.848.35,1.175.5l.129.054c.371.166.658.305.859.406a.4.4,0,0,1,.078.043c.1.051.19.1.281.158l5.132,53.948Z" transform="translate(-3156.918 -1505.789)" fill="#cee2ff"/>
        <path id="Trazado_99575" data-name="Trazado 99575" d="M3340.721,1632.711c-7.131,3.311-49.553,6.09-53.628,4.918-2.09-.6-10.836-8.307-19.634-17.784l-.008-.007c-8.327-8.963-16.722-19.514-19.554-27.107a46.456,46.456,0,0,1-.817-29.455s10.824-.046,15.236,2.618,29.644,49.136,33.016,50.361,43.34,3.517,47.915,5.689C3343.248,1621.945,3347.847,1629.4,3340.721,1632.711Z" transform="translate(-3144.102 -1505.321)" fill="#cee2ff"/>
        <path id="Trazado_99576" data-name="Trazado 99576" d="M3245.4,1566.737l-.01,2.627s.73,8.215-9.385,9.43-17.784-3.177-17.521-9.516c.9-4.91,1.9-8.282,1.96-12.344a28.711,28.711,0,0,0-.366-4.919l19.6-.421,5.775.934Z" transform="translate(-3152.22 -1508.886)" fill="#f59a5f"/>
        <path id="Trazado_99577" data-name="Trazado 99577" d="M3245.081,1552.429l-.053,14.209a16.559,16.559,0,0,1-7.062,1.57c-9.01.014-17.977-14.485-18.26-16.292Z" transform="translate(-3151.845 -1508.788)" fill="#e3884d"/>
        <path id="Trazado_99578" data-name="Trazado 99578" d="M3247.344,1567.283s-25.1,5.111-28.04-10.568-8.163-25.579,7.739-29.5,20.144,1.472,22.4,6.466S3253.8,1565.55,3247.344,1567.283Z" transform="translate(-3152.953 -1516.739)" fill="#f59a5f"/>
        <path id="Trazado_99579" data-name="Trazado 99579" d="M3255.925,1524.15a52.605,52.605,0,0,1-15.264-4.1c-6.707-2.9-15.158.318-17.9,1.768a4.086,4.086,0,0,1,.667-1.652,3.686,3.686,0,0,0-1.411,2.1c-.127.094-.184.158-.152.18a4.723,4.723,0,0,0-2.293.151s.628-.09.852.313a.37.37,0,0,0,.1.111c-10.448,5.068-11.388,21.592-8.018,25.411,4.055,4.593,8.925,14.944,8.925,14.944a8.88,8.88,0,0,0,1.023-6.5c-.741-4.046,2.754-4.051,7.167-5.9s.725-6.993,4.585-10.127,18.028-1.316,17.84-3.707C3257.3,1535.217,3255.926,1524.689,3255.925,1524.15Z" transform="translate(-3154.573 -1518.872)" fill="#982c29"/>
        <path id="Trazado_99580" data-name="Trazado 99580" d="M3212.571,1656.586c-1.2-8.122-4.064-18.436-5.407-27.209-1.116-7.3-2.187-19.041-3.024-26.7-.011-.1-.022-.2-.033-.295.054.026.144.172.2.1,2.772-3.366,10.337-7.049,19.5,6.363,1.829,2.672,9.311,19.1,9.043,22.467C3231.634,1646.657,3212.571,1656.586,3212.571,1656.586Z" transform="translate(-3156.605 -1494.319)" fill="#b0d2f5"/>
        <path id="Trazado_99581" data-name="Trazado 99581" d="M3215.184,1627.5a7.616,7.616,0,0,1,.966-4.633s1.174-.761,2.733-1.648c2.324-1.312,5.5-2.9,6.944-2.644.258.047.607.123,1.021.223,3.415.818,11.378,3.272,12.582,4.709.992,1.181,2.342,2.686,3.272,3.994Z" transform="translate(-3153.246 -1488.453)" fill="#f59a5f"/>
        <path id="Trazado_99582" data-name="Trazado 99582" d="M3234.915,1642.94h-67.072a4.071,4.071,0,0,1,.05-2.256c2-5.053,5.906-13.373,10.4-22.3,3.309-6.566,6.933-13.463,10.357-19.63,4.75-8.563,9.1-15.726,11.661-18.664a30.349,30.349,0,0,1,7.216-5.847,51.045,51.045,0,0,1,6.732-3.362v0c.15-.064.306-.125.456-.186a59.374,59.374,0,0,1,8.373-2.723s.051,2.119.055,5.377c.014,9.453-.349,28.505-3.366,33.153a61.9,61.9,0,0,1-4.365,5.55c-.057.065-.111.131-.168.195-1.06,1.242-2.234,2.579-3.466,3.955-7,7.842-15.866,17.051-16.947,18.172-.075.076-.111.115-.111.115h.128l18.808.262,5.769.078,11.962.166a4.518,4.518,0,0,1,1.96,1.667A12.106,12.106,0,0,1,3234.915,1642.94Z" transform="translate(-3167.712 -1503.889)" fill="#cee2ff"/>
        <path id="Trazado_99583" data-name="Trazado 99583" d="M3335.488,1619.8c-7.131,3.311-49.553,6.09-53.628,4.918-2.09-.6-10.836-8.307-19.634-17.784.433.057,4.457-6.65,22.805,9.4,0,0,4.8,2.138,17.881.941S3332.781,1615.636,3335.488,1619.8Z" transform="translate(-3138.869 -1492.408)" fill="#b0d2f5"/>
        <rect id="Rectángulo_5113" data-name="Rectángulo 5113" width="17.53" height="21.841" rx="6.325" transform="translate(60.229 26.033) rotate(-11.42)" fill="#0d2546"/>
        <g id="Grupo_53777" data-name="Grupo 53777" transform="translate(65.125)">
          <path id="Trazado_99584" data-name="Trazado 99584" d="M3218.351,1545.662c-.668-1.208-1.651-10.933,1.022-18.676a12.4,12.4,0,0,1,6-7.315,6.422,6.422,0,0,1,3.092-.8l2.634.043c-8.673,3.673-10.684,23.318-10.008,25.413a.8.8,0,0,0-.068-.146Z" transform="translate(-3217.609 -1518.872)" fill="#0d2546"/>
        </g>
        <path id="Rectángulo_5114" data-name="Rectángulo 5114" d="M3.151,0H5.582A3.152,3.152,0,0,1,8.734,3.152V7.731a3.151,3.151,0,0,1-3.151,3.151H3.151A3.151,3.151,0,0,1,0,7.731V3.151A3.151,3.151,0,0,1,3.151,0Z" transform="translate(64.611 30.738) rotate(-11.419)" fill="#25468f"/>
      </g>
    </g>
    <g id="Grupo_53786" data-name="Grupo 53786" transform="translate(3603.392 1655.798)">
      <g id="Grupo_53781" data-name="Grupo 53781" transform="translate(67.72 50.011)">
        <path id="Trazado_99585" data-name="Trazado 99585" d="M3580.816,1716.526s-8.863-10.225-.547-16.718c0,0,6.075-3.636,11.027-3.341,0,0-7.018,11.637-4.748,12.795s6.875-13.526,6.875-13.526,13.824-1.325,18.271.79c0,0-11.817,9.562-9.329,10.131s15.253-8.816,15.253-8.816,12.867,2.165,12.18,9.926-5.119,10.157-7.068,9.95-13.346-4.508-13.595-2.93,6.614,6.737,11.418,6.979c0,0-9.071,9.892-15.1,7.037s-6.543-7.381-10.3-9.077-6.966-1.693-5.414.038,8.353,3.413,10.5,7.172,4.078,6.294-2.16,5.366-16.375-5.44-16.82-10.607Z" transform="translate(-3565.835 -1695.326)" fill="#c3daf6"/>
        <g id="Grupo_53780" data-name="Grupo 53780" transform="translate(0 12.588)">
          <path id="Trazado_99586" data-name="Trazado 99586" d="M3624.337,1705.031s-34.945-1.331-42.663,8.552a24.973,24.973,0,0,1-6.959,9.656l-.818,2.206s6.056-6.313,8.223-6.694C3582.12,1718.749,3578.73,1706.507,3624.337,1705.031Z" transform="translate(-3566.694 -1704.971)" fill="#c3daf6"/>
          <path id="Trazado_99587" data-name="Trazado 99587" d="M3576.4,1719.17a21.649,21.649,0,0,0-8.021,15.285l1.361.121s2.4-10.133,6.726-14.1S3576.4,1719.17,3576.4,1719.17Z" transform="translate(-3568.378 -1700.903)" fill="#c3daf6"/>
        </g>
      </g>
      <g id="Grupo_53783" data-name="Grupo 53783" transform="translate(-0.001 22.253)">
        <path id="Trazado_99588" data-name="Trazado 99588" d="M3568.2,1710.158s14.1-7.806,7.521-18.4c0,0-5.264-6.505-10.9-8.177,0,0,3.007,15.8,0,16.17s-2.068-17.843-2.068-17.843-14.85-7.063-20.678-6.506c0,0,9.21,15.428,6.2,15.056s-13.347-15.986-13.347-15.986-15.227-2.788-17.67,6.134,1.5,13.383,3.759,13.941,16.731.372,16.355,2.23-10.151,4.832-15.6,3.16c0,0,6.014,14.683,13.91,13.939s10.338-5.576,15.226-5.948,8.459.929,6.016,2.231-10.715.427-14.662,3.746-7.143,5.363.188,6.849,20.49.557,23.121-5.018Z" transform="translate(-3516.491 -1674.058)" fill="#c3daf6"/>
        <g id="Grupo_53782" data-name="Grupo 53782" transform="translate(7.726 9.334)">
          <path id="Trazado_99589" data-name="Trazado 99589" d="M3522.411,1681.21s39.477,12.639,43.987,26.765a29.378,29.378,0,0,0,3.76,13.568v2.789s-4.136-9.479-6.392-10.781C3563.767,1713.552,3572.6,1701.283,3522.411,1681.21Z" transform="translate(-3522.411 -1681.21)" fill="#c3daf6"/>
          <path id="Trazado_99590" data-name="Trazado 99590" d="M3559.435,1712.519s6.087,9.141,2.617,20.268l-1.566-.415s1.521-12.256-1.665-18.42S3559.435,1712.519,3559.435,1712.519Z" transform="translate(-3511.688 -1672.185)" fill="#c3daf6"/>
        </g>
      </g>
      <g id="Grupo_53785" data-name="Grupo 53785" transform="translate(61.925 0)">
        <path id="Trazado_99591" data-name="Trazado 99591" d="M3576.156,1704.594s-18.584-10.29-9.913-24.255c0,0,6.938-8.576,14.373-10.781,0,0-3.964,20.825,0,21.316s2.725-23.522,2.725-23.522,19.576-9.31,27.258-8.575c0,0-12.142,20.336-8.178,19.845s17.594-21.07,17.594-21.07,20.071-3.676,23.293,8.085-1.982,17.641-4.957,18.377-22.053.49-21.557,2.94,13.38,6.37,20.567,4.165c0,0-7.929,19.357-18.336,18.377s-13.63-7.351-20.073-7.84-11.15,1.224-7.929,2.939,14.125.563,19.329,4.936,9.415,7.07-.248,9.031-27.009.735-30.479-6.616Z" transform="translate(-3563.938 -1657.008)" fill="#d0e3f9"/>
        <g id="Grupo_53784" data-name="Grupo 53784" transform="translate(2.402 12.305)">
          <path id="Trazado_99592" data-name="Trazado 99592" d="M3632.441,1666.436s-52.038,16.661-57.983,35.281a38.734,38.734,0,0,1-4.956,17.886v3.675s5.452-12.5,8.425-14.211C3577.927,1709.068,3566.281,1692.9,3632.441,1666.436Z" transform="translate(-3564.642 -1666.436)" fill="#d0e3f9"/>
          <path id="Trazado_99593" data-name="Trazado 99593" d="M3570.638,1707.707s-8.025,12.049-3.451,26.717l2.065-.548s-2-16.155,2.2-24.28S3570.638,1707.707,3570.638,1707.707Z" transform="translate(-3565.778 -1654.539)" fill="#d0e3f9"/>
        </g>
      </g>
      <path id="Trazado_99594" data-name="Trazado 99594" d="M3581.331,1760.429a36.2,36.2,0,0,0,36.4-36h-72.808A36.2,36.2,0,0,0,3581.331,1760.429Z" transform="translate(-3507.814 -1636.432)" fill="#d0e3f9"/>
      <path id="Trazado_99595" data-name="Trazado 99595" d="M3618.354,1754.454h-73.812a4.466,4.466,0,0,1,4.489-4.442h64.833a4.467,4.467,0,0,1,4.491,4.442Z" transform="translate(-3507.932 -1628.626)" fill="#d0e3f9"/>
      <rect id="Rectángulo_5115" data-name="Rectángulo 5115" width="74.833" height="1.104" transform="translate(35.915 88.001)" fill="#97c0f8"/>
    </g>
    <g id="Grupo_53794" data-name="Grupo 53794" transform="translate(2884.051 1468.767)">
      <g id="Grupo_53789" data-name="Grupo 53789" transform="translate(0 86.739)">
        <g id="Grupo_53788" data-name="Grupo 53788">
          <path id="Rectángulo_5116" data-name="Rectángulo 5116" d="M0,0H125.6a0,0,0,0,1,0,0V13.337a0,0,0,0,1,0,0H6.192A6.192,6.192,0,0,1,0,7.145V0A0,0,0,0,1,0,0Z" transform="translate(2.136 111.391)" fill="#6ca3ea"/>
          <g id="Grupo_53787" data-name="Grupo 53787" transform="translate(19.861 124.728)">
            <path id="Trazado_99596" data-name="Trazado 99596" d="M3019.563,1772.187h-7.58l-2.126-96.457h11.58Z" transform="translate(-2971.624 -1675.73)" fill="#8eaff1"/>
            <path id="Trazado_99597" data-name="Trazado 99597" d="M3059.77,1751.983h-73.72v-6.659l37.574-3.389,36.146,3.389Z" transform="translate(-2978.888 -1655.526)" fill="#8eaff1"/>
            <path id="Trazado_99598" data-name="Trazado 99598" d="M2980.563,1750.251a6.064,6.064,0,1,1,6.064,6.064A6.064,6.064,0,0,1,2980.563,1750.251Z" transform="translate(-2980.563 -1654.839)" fill="#8eaff1"/>
            <path id="Trazado_99599" data-name="Trazado 99599" d="M3037.046,1750.251a6.065,6.065,0,1,1,6.064,6.064A6.064,6.064,0,0,1,3037.046,1750.251Z" transform="translate(-2963.326 -1654.839)" fill="#8eaff1"/>
            <path id="Rectángulo_5117" data-name="Rectángulo 5117" d="M0,0H62.026a0,0,0,0,1,0,0V2.088a4.241,4.241,0,0,1-4.241,4.241H4.241A4.241,4.241,0,0,1,0,2.088V0A0,0,0,0,1,0,0Z" transform="translate(13.009)" fill="#8eaff1"/>
          </g>
          <path id="Trazado_99600" data-name="Trazado 99600" d="M2977.505,1704.893a10.524,10.524,0,0,1-10.523-10.524V1610.3c0-16.644,10.883-30.136,24.307-30.136h54.962c13.424,0,24.307,13.493,24.307,30.136v94.591Z" transform="translate(-2964.847 -1580.166)" fill="#b2044b"/>
          <path id="Trazado_99601" data-name="Trazado 99601" d="M2977.226,1704.893a5.771,5.771,0,0,1-5.77-5.77V1610.3c0-16.644,10.882-30.136,24.306-30.136h54.962c13.424,0,24.305,13.493,24.305,30.136v94.591Z" transform="translate(-2963.481 -1580.166)" fill="#ff0062"/>
          <path id="Trazado_99602" data-name="Trazado 99602" d="M3106.468,1678.848H2972.014a6.668,6.668,0,0,1-6.668-6.668h0a6.668,6.668,0,0,1,6.668-6.668h134.453a6.669,6.669,0,0,1,6.67,6.668h0A6.669,6.669,0,0,1,3106.468,1678.848Z" transform="translate(-2965.346 -1554.121)" fill="#b2044b"/>
        </g>
      </g>
      <g id="Grupo_53793" data-name="Grupo 53793" transform="translate(28.024 0)">
        <path id="Trazado_99603" data-name="Trazado 99603" d="M3101.569,1753.694c-.4,3.875,4.991,4.876,11.243,5.255s4.348,1.639,12.9,3.284,12.016-.664,12.648-1.817c.563-1.021-3.405-2.671-7.632-4.533-.533-.232-1.065-.471-1.6-.711-4.757-2.154-7.394-6.469-11.077-10.483-3.49-3.8-6.712-15.893-6.712-15.893l-11.622-2.612s3.155,10.884,4.241,15.528c.638,2.731-.38,5.766-1.279,8.075A15.219,15.219,0,0,0,3101.569,1753.694Z" transform="translate(-2952.362 -1448.867)" fill="#ffae73"/>
        <path id="Trazado_99604" data-name="Trazado 99604" d="M3112.384,1753.43c6.252.379,4.348,1.639,12.9,3.284s12.015-.664,12.648-1.817c.563-1.021-3.4-2.67-7.632-4.533l-.066.072a24.4,24.4,0,0,1-12.985.016c-5.654-1.6-11.1-5.047-15-6.184a15.2,15.2,0,0,0-1.114,3.908C3100.743,1752.051,3106.133,1753.052,3112.384,1753.43Z" transform="translate(-2951.935 -1443.348)" fill="#09254c"/>
        <path id="Trazado_99605" data-name="Trazado 99605" d="M3113.854,1652.222c-6.254-4.391-47.621-12.219-68.73-14.482l-23.333-20.255s-19.861,29.416-20.018,51.92c-.074,10.494,4.759,11.535,4.76,11.538s74.8.555,78.077.893c5.367.553,12.447,13.924,14.216,26.1s32.96,61.7,32.96,61.7,6.5,2.084,9.512,1.907a9.493,9.493,0,0,0,4.733-1.274S3127.956,1662.126,3113.854,1652.222Z" transform="translate(-2982.254 -1482.038)" fill="#1e3865"/>
        <path id="Trazado_99606" data-name="Trazado 99606" d="M3086.746,1753.694c-.4,3.875,4.991,4.876,11.243,5.255s4.347,1.639,12.9,3.284,12.015-.664,12.648-1.817c.564-1.021-3.4-2.671-7.631-4.533-.532-.232-1.065-.471-1.6-.711-4.757-2.154-7.394-6.469-11.078-10.483-3.489-3.8-6.712-15.893-6.712-15.893l-11.622-2.612s3.155,10.884,4.241,15.528c.639,2.731-.379,5.766-1.279,8.075A15.227,15.227,0,0,0,3086.746,1753.694Z" transform="translate(-2956.886 -1448.867)" fill="#ffae73"/>
        <path id="Trazado_99607" data-name="Trazado 99607" d="M3097.562,1753.43c6.25.379,4.347,1.639,12.9,3.284s12.015-.664,12.648-1.817c.564-1.021-3.4-2.67-7.631-4.533l-.068.072a24.4,24.4,0,0,1-12.985.016c-5.654-1.6-11.1-5.047-15-6.184a15.217,15.217,0,0,0-1.113,3.908C3085.919,1752.051,3091.31,1753.052,3097.562,1753.43Z" transform="translate(-2956.458 -1443.348)" fill="#1e3865"/>
        <path id="Trazado_99608" data-name="Trazado 99608" d="M3098.9,1652.222c-5.432-3.814-21.773-6.771-39.809-8.967a12.132,12.132,0,0,1-10.3-9.107h0l-41.955-16.663s-19.86,29.416-20.017,51.92c-.073,10.494,4.76,11.535,4.761,11.538s74.8.555,78.077.893c5.367.553,12.446,13.924,14.215,26.1s32.959,61.7,32.959,61.7,6.505,2.084,9.514,1.907a9.5,9.5,0,0,0,4.732-1.274S3113,1662.126,3098.9,1652.222Z" transform="translate(-2986.817 -1482.038)" fill="#25468f"/>
        <path id="Trazado_99609" data-name="Trazado 99609" d="M3036.745,1545.329s-12.231,6.253-3.319,19.684c0,0-10.508,1.215-13.15-1.806a8.564,8.564,0,0,0,.863,1.967s-10.181-1.335-13.827-5.192,7.727-55.179,34.84-44.677c0,0,24.106,2.2,17.265,29.37s2.147,28.682,2.147,28.682a12.988,12.988,0,0,1-3.914.61s-1.65-.97-1.835-2a6.367,6.367,0,0,0,.462,2.154s-9.855-.71-14.085-5.186S3034.409,1550.779,3036.745,1545.329Z" transform="translate(-2980.765 -1513.653)" fill="#982c29"/>
        <path id="Rectángulo_5118" data-name="Rectángulo 5118" d="M6.133,0h4.731A6.132,6.132,0,0,1,17,6.132v8.911a6.132,6.132,0,0,1-6.132,6.132H6.133A6.133,6.133,0,0,1,0,15.042V6.133A6.133,6.133,0,0,1,6.133,0Z" transform="translate(61.623 25.361) rotate(-7.885)" fill="#666"/>
        <path id="Trazado_99610" data-name="Trazado 99610" d="M3056.825,1589.915c-3.649,2.818-5.958,12.988-11.843,14.666-22.057,6.295-33.9-19.9-37.771-32.682a19.21,19.21,0,0,1,7.444-2.709c1.6-.273,3.294-.486,4.7-.626,2.408-2.048,5.741-10.1,5.945-22.337l1.065.228,17.837,3.917s-.521,5.633-.646,10.939c-.094,4.152-.228,5.143.092,5.638,1.388.227,3.023,3.775,3.023,3.775a.043.043,0,0,0,.009.017A113.429,113.429,0,0,1,3056.825,1589.915Z" transform="translate(-2980.594 -1503.785)" fill="#ffae73"/>
        <path id="Trazado_99611" data-name="Trazado 99611" d="M3039.721,1550.321s-.525,5.629-.646,10.939c-10.017-.49-15.125-9.742-17.192-14.854Z" transform="translate(-2976.116 -1503.73)" fill="#f99352"/>
        <g id="Grupo_53790" data-name="Grupo 53790" transform="translate(1.22 62.995)">
          <path id="Trazado_99612" data-name="Trazado 99612" d="M3140.855,1638.073s-10.487.385-21.878.424c-1.347.009-2.711.009-4.066,0-9.28-.039-18.394-.363-22.274-1.364-3.79-.974-18.366-10.855-30.032-22.826l-.005-.005c-.9,2.152-1.586,3.8-1.6,3.934a60.581,60.581,0,0,1-1.612,7.963c-.05.176-.094.359-.133.54-.031.142-.057.287-.089.433s-.053.279-.07.422c-1.254,7.68,2.564,19.327,3.675,25.249.355,1.878.435,3.181,0,3.6-19,18.016-54.64,13.925-70.287,11.02a5.779,5.779,0,0,1-4.1-8.3c6.033-11.932,17.353-38.292,15.524-65.159-.062-.916,8.49-30.25,8.49-30.25s6.647-1.16,14.327-1.78c.727.66,2.22,19.957,11.826,21.073,1.563.182,11.59,15.492,11.59,15.492l3.034-15.642-3.592-20.755c4.61,1.351,7.139,1.839,10.97,3.366a12.117,12.117,0,0,1,6.117,5.435c6.714,12.269,28.5,51.836,30.722,52.758,2.082.864,9.93,2.432,18.235,3.947h0c11.112,2.032,23.04,3.958,23.04,3.958Z" transform="translate(-2987.752 -1561.974)" fill="#cee2ff"/>
          <path id="Trazado_99613" data-name="Trazado 99613" d="M3040.6,1625.305l-3.493.011.01-.014Z" transform="translate(-2972.689 -1542.648)" fill="#cee2ff"/>
        </g>
        <path id="Trazado_99614" data-name="Trazado 99614" d="M3043.253,1562.947s-23.718-.466-23.2-15.231-2.2-24.77,12.969-25.1,17.908,5.41,18.934,10.38S3049.437,1562.687,3043.253,1562.947Z" transform="translate(-2976.677 -1510.993)" fill="#ffae73"/>
        <path id="Trazado_99615" data-name="Trazado 99615" d="M3101.477,1628.862c-1.347.006-2.712.006-4.069,0-9.276-.039-18.393-.365-22.27-1.365-3.79-.976-18.369-10.856-30.035-22.826l0-.007s2.46-9.421,3.521-11,5.245,13.747,15.024,19.984,25.081,10.6,32.512,8.837C3101.162,1621.3,3101.674,1625.8,3101.477,1628.862Z" transform="translate(-2969.031 -1489.342)" fill="#b0d2f5"/>
        <path id="Trazado_99616" data-name="Trazado 99616" d="M3034.258,1547.343s.152,1.767,4.041,2.047c0,0,3.265.235,3.4-1.665A9.577,9.577,0,0,0,3034.258,1547.343Z" transform="translate(-2972.34 -1503.608)" fill="#fff"/>
        <path id="Trazado_99617" data-name="Trazado 99617" d="M3045.246,1521.682s-6.073,17.987-15.182,21.038-12.129-.561-12.129-.561a26.347,26.347,0,0,0,7.482-16.14S3040.133,1514.328,3045.246,1521.682Z" transform="translate(-2977.321 -1512.016)" fill="#982c29"/>
        <path id="Trazado_99618" data-name="Trazado 99618" d="M3030.171,1526.594s12.367-.694,16.062,2.827c2.665,2.538,2.6,3.865,2.81,7.249,0,0,5.407-8.341-.157-14.179C3042.985,1516.3,3030.171,1526.594,3030.171,1526.594Z" transform="translate(-2973.587 -1511.633)" fill="#982c29"/>
        <path id="Trazado_99619" data-name="Trazado 99619" d="M3041.827,1523.567s-3.1,17.21-14.417,23.462c0,0,10.965-11.223,11.159-22.45S3041.827,1523.567,3041.827,1523.567Z" transform="translate(-2974.429 -1511.998)" fill="#982c29"/>
        <path id="Trazado_99620" data-name="Trazado 99620" d="M3007.311,1559.98c3.647,3.859,13.827,5.2,13.827,5.2a8.464,8.464,0,0,1-.86-1.969c5.231,4.242,18.079,1.161,18.079,1.161-10.25-2.263-6.931-17.054-3.445-17.685a320.807,320.807,0,0,1,7.947-31.28c-.453-.074-.71-.1-.71-.1C3015.039,1504.8,3003.666,1556.125,3007.311,1559.98Z" transform="translate(-2980.766 -1513.653)" fill="#982c29"/>
        <g id="Grupo_53792" data-name="Grupo 53792" transform="translate(36.992)">
          <path id="Rectángulo_5119" data-name="Rectángulo 5119" d="M6.132,0h4.732A6.131,6.131,0,0,1,17,6.131v8.911a6.132,6.132,0,0,1-6.132,6.132H6.132A6.132,6.132,0,0,1,0,15.042V6.132A6.132,6.132,0,0,1,6.132,0Z" transform="matrix(0.99, -0.138, 0.138, 0.99, 0, 23.848)" fill="#666"/>
          <g id="Grupo_53791" data-name="Grupo 53791" transform="translate(5.314)">
            <path id="Trazado_99621" data-name="Trazado 99621" d="M3019.33,1538.622c-.582-1.091,1.459-9.57,4.461-16.145,1.45-3.178,5.112-7.432,7.725-8.528a5.625,5.625,0,0,1,3.221,0,24.515,24.515,0,0,1,2.827,1.141c-8.589,2.677-16.054,20.676-15.512,22.54a.637.637,0,0,0-.057-.132Z" transform="translate(-3019.231 -1513.708)" fill="#666"/>
          </g>
          <path id="Rectángulo_5120" data-name="Rectángulo 5120" d="M3.055,0H5.413A3.055,3.055,0,0,1,8.468,3.055V7.5A3.055,3.055,0,0,1,5.413,10.55H3.056A3.056,3.056,0,0,1,0,7.494V3.055A3.055,3.055,0,0,1,3.055,0Z" transform="matrix(0.99, -0.138, 0.138, 0.99, 3.96, 28.661)" fill="#515151"/>
        </g>
        <path id="Trazado_99622" data-name="Trazado 99622" d="M3066.8,1613.793s10.171-.585,11.16-.052c1.605.866,7.068,4.384,7.925,5.406a57.043,57.043,0,0,1,3.1,5.124s-.971.269-1.41-.124-3.756-3.921-3.756-3.921l3.409,5.179a2.885,2.885,0,0,1-1.646-.567c-.467-.514-3.653-3.754-3.653-3.754l-1.085-.214a11.784,11.784,0,0,1,1.7,1.689,10.533,10.533,0,0,1,1,1.666,8.02,8.02,0,0,1-1.275-.309c-.3-.145-3.158-2.644-3.158-2.644l1.514,2.065a3.97,3.97,0,0,1-1.357-.277c-.335-.227-2.561-2.276-2.955-2.272a13.3,13.3,0,0,1-4.455-.76c-1.219-.647-5.049-2.129-5.049-2.129Z" transform="translate(-2962.408 -1483.25)" fill="#ffae73"/>
        <path id="Trazado_99623" data-name="Trazado 99623" d="M3020.637,1559.8s-6.8,1.984-8.353,3.545c0,0,7.11,18.178,17.363,26.662l2.74-1.945v4.419l10.264,6.716S3020.111,1565.3,3020.637,1559.8Z" transform="translate(-2979.046 -1499.641)" fill="#b0d2f5"/>
        <path id="Trazado_99624" data-name="Trazado 99624" d="M3058.228,1645.264c-5.381-2.085-23.424-9.388-30.674-16.2-8.1-7.631-24.922-35.064-24.922-35.064l29.426-7.189s12.121,17.694,15.572,21.064c2.648,2.591,8.827,2.787,8.827,2.787l-1.612,7.963c-.05.176-.094.359-.133.54-.031.142-.057.287-.089.433s-.048.279-.07.422C3053.3,1627.7,3057.117,1639.343,3058.228,1645.264Z" transform="translate(-2981.991 -1491.401)" fill="#b0d2f5"/>
        <path id="Trazado_99625" data-name="Trazado 99625" d="M3035.163,1562.805s3.13,24.732.556,36.4c0,0,4.2-7.719,4.79-9.132l-.707-4.242,2.711.942s-2.391-19.719-4.553-23.175-2.96-3.792-2.96-3.792Z" transform="translate(-2972.114 -1499.641)" fill="#b0d2f5"/>
        <path id="Trazado_99626" data-name="Trazado 99626" d="M3111.417,1622.719s-13.123.484-25.948.424c-3.181-4.935.714-10.85.714-10.85h.007c11.111,2.03,23.038,3.956,23.038,3.956Z" transform="translate(-2957.093 -1483.623)" fill="#ffae73"/>
        <path id="Trazado_99627" data-name="Trazado 99627" d="M3117.35,1626.217h-48.5a3.866,3.866,0,0,1,3.866-3.866h44.629Z" transform="translate(-2961.782 -1480.554)" fill="#515151"/>
        <path id="Trazado_99628" data-name="Trazado 99628" d="M3185.2,1584.845l-17.983,52.818h-75.465l18.472-52.818Z" transform="translate(-2954.794 -1491.999)" fill="#515151"/>
        <path id="Trazado_99629" data-name="Trazado 99629" d="M3184.942,1584.845l-17.818,52.329-.165.488H3092.6l18.471-52.818Z" transform="translate(-2954.536 -1491.999)" fill="#666"/>
        <path id="Trazado_99630" data-name="Trazado 99630" d="M3134.957,1605.559a4.875,4.875,0,0,1-4.5,3.654,2.814,2.814,0,0,1-2.81-3.654,4.875,4.875,0,0,1,4.5-3.653A2.813,2.813,0,0,1,3134.957,1605.559Z" transform="translate(-2943.869 -1486.793)" fill="#ffc08f"/>
        <path id="Trazado_99631" data-name="Trazado 99631" d="M3175.5,1584.845l-17.817,52.329h-34.167l41.659-52.329Z" transform="translate(-2945.099 -1491.999)" fill="#515151"/>
        <path id="Trazado_99632" data-name="Trazado 99632" d="M3075.871,1619.68s-24.966,2.181-38.762,1.566v-13.557c9.039,2.5,38.752,7.883,38.752,7.883Z" transform="translate(-2971.47 -1485.028)" fill="#ffae73"/>
        <path id="Trazado_99633" data-name="Trazado 99633" d="M3016.946,1562.521s-14.276.325-18.7,5.1,4.384,31.746,4.384,31.746,26.613,32.593,39.925,34.891c0,0,5.819.795,8.533.838,0,0-2.663-7.753,2.291-12.617,0,0-5.7-1.6-5.936-2.3S3016.946,1562.521,3016.946,1562.521Z" transform="translate(-2983.707 -1498.812)" fill="#cee2ff"/>
      </g>
    </g>
    <g id="Grupo_53798" data-name="Grupo 53798" transform="translate(2845.074 1614.486)">
      <g id="Grupo_53796" data-name="Grupo 53796" transform="translate(0 0.001)">
        <g id="Grupo_53795" data-name="Grupo 53795" transform="translate(14.064 5.47)">
          <path id="Trazado_99634" data-name="Trazado 99634" d="M2947.749,1794.134h-.129c-.765,0-1.379-1.13-1.361-2.5l2.063-160.809,6.083-1.274-5.186,162.095C2949.173,1793.04,2948.53,1794.134,2947.749,1794.134Z" transform="translate(-2946.258 -1629.547)" fill="#1e3865"/>
        </g>
        <rect id="Rectángulo_5121" data-name="Rectángulo 5121" width="363.065" height="9.702" rx="3.171" transform="translate(363.065 9.702) rotate(180)" fill="#1e3865"/>
      </g>
      <g id="Grupo_53797" data-name="Grupo 53797" transform="translate(790.935 5.471)">
        <path id="Trazado_99635" data-name="Trazado 99635" d="M3548.138,1794.134h.129c.765,0,1.379-1.13,1.363-2.5l-2.065-160.809-6.083-1.274,5.187,162.095C3546.714,1793.04,3547.359,1794.134,3548.138,1794.134Z" transform="translate(-3541.483 -1629.547)" fill="#1e3865"/>
      </g>
      <rect id="Rectángulo_5122" data-name="Rectángulo 5122" width="482.856" height="9.702" rx="3.657" transform="translate(810.729 9.703) rotate(180)" fill="#1e3865"/>
    </g>
    <g id="Grupo_53799" data-name="Grupo 53799" transform="translate(3258.119 1561.612)">
      <path id="Trazado_99636" data-name="Trazado 99636" d="M3300.444,1626.217h-48.5a3.865,3.865,0,0,1,3.865-3.866h44.63Z" transform="translate(-3251.949 -1573.399)" fill="#515151"/>
      <path id="Trazado_99637" data-name="Trazado 99637" d="M3368.294,1584.845l-17.983,52.818h-75.464l18.471-52.818Z" transform="translate(-3244.962 -1584.845)" fill="#515151"/>
      <path id="Trazado_99638" data-name="Trazado 99638" d="M3368.036,1584.845l-17.818,52.329-.165.488h-74.362l18.471-52.818Z" transform="translate(-3244.704 -1584.845)" fill="#666"/>
      <path id="Trazado_99639" data-name="Trazado 99639" d="M3318.051,1605.559a4.875,4.875,0,0,1-4.5,3.654,2.814,2.814,0,0,1-2.811-3.654,4.875,4.875,0,0,1,4.5-3.653A2.813,2.813,0,0,1,3318.051,1605.559Z" transform="translate(-3234.037 -1579.638)" fill="#ffc08f"/>
      <path id="Trazado_99640" data-name="Trazado 99640" d="M3358.6,1584.845l-17.818,52.329h-34.165l41.659-52.329Z" transform="translate(-3235.267 -1584.845)" fill="#515151"/>
    </g>
    <g id="Grupo_53800" data-name="Grupo 53800" transform="translate(3395.108 1561.612)">
      <path id="Trazado_99641" data-name="Trazado 99641" d="M3356.909,1584.845l18.1,52.874,75.345-.056-18.471-52.818Z" transform="translate(-3356.909 -1584.845)" fill="#515151"/>
      <path id="Trazado_99642" data-name="Trazado 99642" d="M3358.553,1585.734l17.4,51.179.161.478h72.634l-18.042-51.657Z" transform="translate(-3356.407 -1584.573)" fill="#a7d3ff"/>
      <path id="Trazado_99643" data-name="Trazado 99643" d="M3371.031,1626.273l105.231-.056h0a3.866,3.866,0,0,0-3.866-3.866H3369.95Z" transform="translate(-3352.929 -1573.399)" fill="#515151"/>
    </g>
    <g id="Grupo_53805" data-name="Grupo 53805" transform="translate(3397.642 1487.296)">
      <g id="Grupo_53804" data-name="Grupo 53804" transform="translate(-0.001 0.001)">
        <g id="Grupo_53801" data-name="Grupo 53801">
          <path id="Trazado_99644" data-name="Trazado 99644" d="M3453.093,1742.609s-1.061,16.546-4.263,16.775c-.427.03-16.238,0-16.238,0l-20.183-.161s.143-4.863,6.044-5.879,15.786-5.14,19.376-12.93C3441.608,1732.216,3453.093,1742.609,3453.093,1742.609Z" transform="translate(-3342.504 -1464.016)" fill="#032c52"/>
          <path id="Trazado_99645" data-name="Trazado 99645" d="M3505.826,1637.091c.771.649,21.328,22.923,19.648,40.03a9.867,9.867,0,0,1-9.87,8.8h-25.04s-25.55,4.567-26.161,10.088-5.837,35.284-16.2,77.581c0,0-7.635,2.629-12.267.752-6.124-2.483-7.013-5.118-7.013-5.118s6.176-94.708,11.051-101.374,55.1-26.481,71.369-28.454S3505.826,1637.091,3505.826,1637.091Z" transform="translate(-3337.463 -1494.585)" fill="#0b3563"/>
          <path id="Trazado_99646" data-name="Trazado 99646" d="M3381.994,1619.342s-14.53-3.379-18.245,0a18.311,18.311,0,0,0-4.9,8.277h23.145Z" transform="translate(-3358.849 -1500.46)" fill="#ffae73"/>
          <path id="Trazado_99647" data-name="Trazado 99647" d="M3425.99,1742.609s-1.062,16.546-4.264,16.775c-.425.03-16.236,0-16.236,0l-20.183-.161s.142-4.863,6.044-5.879,15.786-5.14,19.377-12.93C3414.505,1732.216,3425.99,1742.609,3425.99,1742.609Z" transform="translate(-3350.775 -1464.016)" fill="#0b3563"/>
          <path id="Trazado_99648" data-name="Trazado 99648" d="M3532.853,1637.091c.584.492,5.033,12.463,8,26.058a18.76,18.76,0,0,1-18.319,22.774h-58.251s-25.55,4.567-26.158,10.088-5.838,35.284-16.2,77.581c0,0-7.661,2.011-13.643-.547a16.88,16.88,0,0,1-5.69-4.62s6.231-93.907,11.106-100.573,55.1-26.481,71.369-28.454S3532.853,1637.091,3532.853,1637.091Z" transform="translate(-3345.499 -1494.585)" fill="#25468f"/>
          <path id="Trazado_99649" data-name="Trazado 99649" d="M3483.354,1577.485l-9.008,8.648-15.349,0c-.018-1.235.034-6.381.087-11.046.005-.274.009-.548.012-.818.012-1.035.026-2.033.037-2.944.031-2.57.057-4.432.057-4.432l3.945-2.7,8.766-6,4.742-3.241c0,.079.392,4.319.45,4.935A35.947,35.947,0,0,0,3483.354,1577.485Z" transform="translate(-3328.288 -1519.651)" fill="#ffae73"/>
          <path id="Trazado_99650" data-name="Trazado 99650" d="M3461.972,1572.652c.292-.123,16.9-7.573,18.841-6.932s4.364,6.574,4.364,6.574l-29.243,6.611S3458.235,1574.226,3461.972,1572.652Z" transform="translate(-3329.221 -1516.378)" fill="#b0d2f5"/>
          <path id="Trazado_99651" data-name="Trazado 99651" d="M3558.018,1620.875c-3.164-19.511-16.523-34.115-22.239-39.589-3.838-5.774-26.386-10.538-26.386-10.538l-29.243,6.611s-16.482,1.789-25.777,17.162c-5.749,9.507-22.212,31.254-33.024,31.928s-44.767,7.264-44.767,7.264v8.352l51.768,1.421a8.859,8.859,0,0,0,1.883-.149c4.455-.842,23.549-4.636,33.046-9.579,1.515,24.454,3.307,61.795,11.848,67.724,9.033,6.272,72.56,7.112,79.287-2.449,3.443-4.892-.778-33.86-6.052-61.792C3554.918,1634.125,3559.345,1629.055,3558.018,1620.875Z" transform="translate(-3353.438 -1514.832)" fill="#cee2ff"/>
          <path id="Trazado_99652" data-name="Trazado 99652" d="M3474.154,1561.356l-.782.486s-7.224,5.2-14.272,7.535c.031-2.57.057-4.432.057-4.432l3.946-2.7Z" transform="translate(-3328.255 -1517.698)" fill="#f59d64"/>
          <path id="Trazado_99653" data-name="Trazado 99653" d="M3456.3,1573.383s23.617,2.794,25.13-11.94,5.582-24.3-9.432-26.7-18.527,2.914-20.228,7.71S3450.2,1572.276,3456.3,1573.383Z" transform="translate(-3330.778 -1526.003)" fill="#ffae73"/>
          <path id="Trazado_99654" data-name="Trazado 99654" d="M3452.788,1542.844s4.457,15.983,7.686,14.65,6.179-2.425,6.6,2.565,2.3,10.842,12.817,9.774,14.94-29.882,11.15-34.408C3480.109,1522.367,3437.6,1527.259,3452.788,1542.844Z" transform="translate(-3331.171 -1527.906)" fill="#0b3563"/>
        </g>
        <g id="Grupo_53803" data-name="Grupo 53803" transform="translate(84.952 70.517)">
          <path id="Rectángulo_5123" data-name="Rectángulo 5123" d="M6.155,0h118.7a0,0,0,0,1,0,0V13.258a0,0,0,0,1,0,0H0a0,0,0,0,1,0,0v-7.1A6.155,6.155,0,0,1,6.155,0Z" transform="translate(144.792 123.989) rotate(180)" fill="#6ca3ea"/>
          <rect id="Rectángulo_5124" data-name="Rectángulo 5124" width="100.259" height="13.258" rx="4.551" transform="translate(100.259 123.989) rotate(180)" fill="#ff0062"/>
          <g id="Grupo_53802" data-name="Grupo 53802" transform="translate(41.833 123.989)">
            <path id="Trazado_99655" data-name="Trazado 99655" d="M3485.3,1772.819h7.535l2.114-95.886h-11.511Z" transform="translate(-3447.613 -1676.933)" fill="#25468f"/>
            <path id="Trazado_99656" data-name="Trazado 99656" d="M3459.771,1752.734h73.284v-6.619l-37.351-3.369-35.933,3.369Z" transform="translate(-3454.835 -1656.848)" fill="#25468f"/>
            <path id="Trazado_99657" data-name="Trazado 99657" d="M3524.194,1751.013a6.028,6.028,0,1,0-6.028,6.028A6.029,6.029,0,0,0,3524.194,1751.013Z" transform="translate(-3438.854 -1656.166)" fill="#25468f"/>
            <path id="Trazado_99658" data-name="Trazado 99658" d="M3468.045,1751.013a6.028,6.028,0,1,0-6.029,6.028A6.029,6.029,0,0,0,3468.045,1751.013Z" transform="translate(-3455.989 -1656.166)" fill="#25468f"/>
            <path id="Trazado_99659" data-name="Trazado 99659" d="M3463.255,1683.224h68.031a6.292,6.292,0,0,0,6.291-6.291h-80.613A6.291,6.291,0,0,0,3463.255,1683.224Z" transform="translate(-3455.691 -1676.933)" fill="#25468f"/>
          </g>
          <path id="Trazado_99660" data-name="Trazado 99660" d="M3548.765,1705.924a5.736,5.736,0,0,0,5.736-5.736v-88.295c0-16.546-10.817-29.958-24.161-29.958H3475.7c-13.344,0-24.161,13.412-24.161,29.958v94.031Z" transform="translate(-3415.514 -1581.935)" fill="#ff0062"/>
          <path id="Trazado_99661" data-name="Trazado 99661" d="M3548.487,1705.924a10.461,10.461,0,0,0,10.462-10.461v-83.57c0-16.546-10.817-29.958-24.162-29.958H3480.15c-13.344,0-24.162,13.412-24.162,29.958v94.031Z" transform="translate(-3414.156 -1581.935)" fill="#b2044b"/>
        </g>
      </g>
    </g>
    <path id="Trazado_99662" data-name="Trazado 99662" d="M3781.074,1754.428v.378a1.135,1.135,0,0,1-1.156,1.1H2762.23a1.135,1.135,0,0,1-1.156-1.1v-.378a1.135,1.135,0,0,1,1.156-1.1H3779.918A1.135,1.135,0,0,1,3781.074,1754.428Z" transform="translate(0 28.615)" fill="#2d3554"/>
  </g>
</svg>
